<svg width="100" height="100" version="1.1" xmlns="http://www.w3.org/2000/svg" desc="Created with imagetracer.js version 1.2.6" ><path fill="rgb(250,250,250)" stroke="rgb(250,250,250)" stroke-width="1" opacity="1" d="M 71.5 13 Q 73 14 70.5 15 Q 69 14 71.5 13 Z " /><path fill="rgb(250,250,250)" stroke="rgb(250,250,250)" stroke-width="1" opacity="1" d="M 69.5 16 L 69.5 17 L 69.5 16 Z " /><path fill="rgb(250,250,250)" stroke="rgb(250,250,250)" stroke-width="1" opacity="1" d="M 66.5 19 L 66.5 20 L 66.5 19 Z " /><path fill="rgb(250,250,250)" stroke="rgb(250,250,250)" stroke-width="1" opacity="1" d="M 81.5 21 L 81.5 22 L 81.5 21 Z " /><path fill="rgb(250,250,250)" stroke="rgb(250,250,250)" stroke-width="1" opacity="1" d="M 62.5 24 L 62.5 25 L 62.5 24 Z " /><path fill="rgb(250,250,250)" stroke="rgb(250,250,250)" stroke-width="1" opacity="1" d="M 58.5 33 L 58.5 34 L 58.5 33 Z " /><path fill="rgb(250,250,250)" stroke="rgb(250,250,250)" stroke-width="1" opacity="1" d="M 82.5 34 L 82.5 35 L 82.5 34 Z " /><path fill="rgb(250,250,250)" stroke="rgb(250,250,250)" stroke-width="1" opacity="1" d="M 55.5 40 L 55.5 41 L 55.5 40 Z " /><path fill="rgb(250,250,250)" stroke="rgb(250,250,250)" stroke-width="1" opacity="1" d="M 85.5 40 L 85.5 41 L 85.5 40 Z " /><path fill="rgb(250,250,250)" stroke="rgb(250,250,250)" stroke-width="1" opacity="1" d="M 54.5 42 L 54.5 43 L 54.5 42 Z " /><path fill="rgb(250,250,250)" stroke="rgb(250,250,250)" stroke-width="1" opacity="1" d="M 84.5 42 L 84.5 43 L 84.5 42 Z " /><path fill="rgb(250,250,250)" stroke="rgb(250,250,250)" stroke-width="1" opacity="1" d="M 83.5 44 L 83.5 45 L 83.5 44 Z " /><path fill="rgb(250,250,250)" stroke="rgb(250,250,250)" stroke-width="1" opacity="1" d="M 79.5 45 L 79.5 46 L 79.5 45 Z " /><path fill="rgb(250,250,250)" stroke="rgb(250,250,250)" stroke-width="1" opacity="1" d="M 82.5 46 L 82.5 47 L 82.5 46 Z " /><path fill="rgb(250,250,250)" stroke="rgb(250,250,250)" stroke-width="1" opacity="1" d="M 72.5 47 L 72.5 48 L 72.5 47 Z " /><path fill="rgb(250,250,250)" stroke="rgb(250,250,250)" stroke-width="1" opacity="1" d="M 78.5 47 L 78.5 48 L 78.5 47 Z " /><path fill="rgb(250,250,250)" stroke="rgb(250,250,250)" stroke-width="1" opacity="1" d="M 51.5 49 L 51.5 50 L 51.5 49 Z " /><path fill="rgb(250,250,250)" stroke="rgb(250,250,250)" stroke-width="1" opacity="1" d="M 71.5 49 L 71.5 50 L 71.5 49 Z " /><path fill="rgb(250,250,250)" stroke="rgb(250,250,250)" stroke-width="1" opacity="1" d="M 77.5 49 L 77.5 50 L 77.5 49 Z " /><path fill="rgb(250,250,250)" stroke="rgb(250,250,250)" stroke-width="1" opacity="1" d="M 23.5 51 L 23.5 52 L 23.5 51 Z " /><path fill="rgb(250,250,250)" stroke="rgb(250,250,250)" stroke-width="1" opacity="1" d="M 50.5 51 L 50.5 52 L 50.5 51 Z " /><path fill="rgb(250,250,250)" stroke="rgb(250,250,250)" stroke-width="1" opacity="1" d="M 70.5 51 L 70.5 52 L 70.5 51 Z " /><path fill="rgb(250,250,250)" stroke="rgb(250,250,250)" stroke-width="1" opacity="1" d="M 76.5 51 L 76.5 52 L 76.5 51 Z " /><path fill="rgb(250,250,250)" stroke="rgb(250,250,250)" stroke-width="1" opacity="1" d="M 21.5 52 L 21.5 53 L 21.5 52 Z " /><path fill="rgb(250,250,250)" stroke="rgb(250,250,250)" stroke-width="1" opacity="1" d="M 31.5 52 Q 34 53 32.5 54 Q 30 53 31.5 52 Z " /><path fill="rgb(250,250,250)" stroke="rgb(250,250,250)" stroke-width="1" opacity="1" d="M 69.5 53 L 69.5 54 L 69.5 53 Z " /><path fill="rgb(250,250,250)" stroke="rgb(250,250,250)" stroke-width="1" opacity="1" d="M 75.5 53 L 75.5 54 L 75.5 53 Z " /><path fill="rgb(250,250,250)" stroke="rgb(250,250,250)" stroke-width="1" opacity="1" d="M 22.5 55 L 22.5 56 L 22.5 55 Z " /><path fill="rgb(250,250,250)" stroke="rgb(250,250,250)" stroke-width="1" opacity="1" d="M 33.5 55 L 33.5 56 L 33.5 55 Z " /><path fill="rgb(250,250,250)" stroke="rgb(250,250,250)" stroke-width="1" opacity="1" d="M 68.5 55 L 68.5 56 L 68.5 55 Z " /><path fill="rgb(250,250,250)" stroke="rgb(250,250,250)" stroke-width="1" opacity="1" d="M 77.5 55 L 77.5 56 L 77.5 55 Z " /><path fill="rgb(250,250,250)" stroke="rgb(250,250,250)" stroke-width="1" opacity="1" d="M 17.5 56 L 17.5 57 L 17.5 56 Z " /><path fill="rgb(250,250,250)" stroke="rgb(250,250,250)" stroke-width="1" opacity="1" d="M 48.5 56 L 48.5 57 L 48.5 56 Z " /><path fill="rgb(250,250,250)" stroke="rgb(250,250,250)" stroke-width="1" opacity="1" d="M 20.5 57 L 20.5 58 L 20.5 57 Z " /><path fill="rgb(250,250,250)" stroke="rgb(250,250,250)" stroke-width="1" opacity="1" d="M 67.5 57 L 67.5 58 L 67.5 57 Z " /><path fill="rgb(250,250,250)" stroke="rgb(250,250,250)" stroke-width="1" opacity="1" d="M 16.5 58 L 16.5 59 L 16.5 58 Z " /><path fill="rgb(250,250,250)" stroke="rgb(250,250,250)" stroke-width="1" opacity="1" d="M 19.5 59 L 19.5 60 L 19.5 59 Z " /><path fill="rgb(250,250,250)" stroke="rgb(250,250,250)" stroke-width="1" opacity="1" d="M 47.5 59 L 47.5 60 L 47.5 59 Z " /><path fill="rgb(250,250,250)" stroke="rgb(250,250,250)" stroke-width="1" opacity="1" d="M 66.5 59 L 66.5 60 L 66.5 59 Z " /><path fill="rgb(250,250,250)" stroke="rgb(250,250,250)" stroke-width="1" opacity="1" d="M 65.5 61 L 65.5 62 L 65.5 61 Z " /><path fill="rgb(250,250,250)" stroke="rgb(250,250,250)" stroke-width="1" opacity="1" d="M 46.5 62 L 46.5 63 L 46.5 62 Z " /><path fill="rgb(250,250,250)" stroke="rgb(250,250,250)" stroke-width="1" opacity="1" d="M 15.5 68 L 15.5 69 L 15.5 68 Z " /><path fill="rgb(250,250,250)" stroke="rgb(250,250,250)" stroke-width="1" opacity="1" d="M 18.5 68 L 18.5 69 L 18.5 68 Z " /><path fill="rgb(250,250,250)" stroke="rgb(250,250,250)" stroke-width="1" opacity="1" d="M 30.5 70 L 30.5 71 L 30.5 70 Z " /><path fill="rgb(250,250,250)" stroke="rgb(250,250,250)" stroke-width="1" opacity="1" d="M 44.5 71 L 44.5 72 L 44.5 71 Z " /><path fill="rgb(250,250,250)" stroke="rgb(250,250,250)" stroke-width="1" opacity="1" d="M 25.5 72 L 25.5 73 L 25.5 72 Z " /><path fill="rgb(250,250,250)" stroke="rgb(250,250,250)" stroke-width="1" opacity="1" d="M 58.5 72 L 58.5 73 L 58.5 72 Z " /><path fill="rgb(250,250,250)" stroke="rgb(250,250,250)" stroke-width="1" opacity="1" d="M 18.5 74 L 18.5 75 L 18.5 74 Z " /><path fill="rgb(250,250,250)" stroke="rgb(250,250,250)" stroke-width="1" opacity="1" d="M 54.5 77 Q 56 78 53.5 79 Q 52 78 54.5 77 Z " /><path fill="rgb(250,250,250)" stroke="rgb(250,250,250)" stroke-width="1" opacity="1" d="M 30.5 78 L 30.5 79 L 30.5 78 Z " /><path fill="rgb(250,250,250)" stroke="rgb(250,250,250)" stroke-width="1" opacity="1" d="M 49.5 82 L 49.5 83 L 49.5 82 Z " /><path fill="rgb(255,255,255)" stroke="rgb(255,255,255)" stroke-width="1" opacity="1" d="M 0 0 L 100 0 L 100 100 L 0 100 L 0 0 Z M 72 13 L 69 18 L 67 19 L 62 25 L 62 27 L 48 57 L 46 63 L 45 71 L 44 72 L 44 82 Q 42 83 43 86 Q 47 87 48 85 Q 47 82 50 83 Q 57 76 63 67 L 79 35 L 79 33 L 82 33 L 83 36 L 83 40 Q 78 46 75 55 L 78 56 L 81 49 L 86 41 Q 87 35 85 33 Q 84 30 81 30 L 81 23 L 82 22 L 82 17 L 74 13 L 72 13 Z M 24 51 L 22 52 L 17 57 L 15 63 L 15 69 L 18 75 L 21 76 Q 25 77 28 75 L 31 79 Q 35 80 37 78 L 37 81 L 40 82 L 39 74 L 37 74 Q 36 76 33 76 L 31 75 L 31 70 L 29 70 L 25 73 L 22 73 L 19 71 L 18 68 L 18 63 L 21 56 Q 24 57 25 54 L 29 54 L 31 57 L 31 62 L 34 61 Q 35 56 33 54 Q 31 50 24 51 Z " /><path fill="rgb(0,0,0)" stroke="rgb(0,0,0)" stroke-width="1" opacity="1" d="M 72.5 14 L 81 18.5 Q 81.75 21.75 80 22.5 L 80 29.5 Q 81.12 32.5 84 32 L 85 34.5 L 85 39.5 L 76.5 55 L 77 53.5 L 84 39.5 L 84 34.5 L 80.5 31 L 79 31 L 60 69.5 L 45.5 86 Q 43.5 85.5 44 82.5 L 45 79.5 Q 43 78.5 45 77.5 L 45 71.5 L 46 70.5 L 48 59.5 L 50 56.5 L 50 54.5 L 53 49.5 L 53 47.5 L 64 23.5 L 68.5 19 Q 70.75 19.75 70 17.5 L 72.5 14 Z " /><path fill="rgb(0,0,0)" stroke="rgb(0,0,0)" stroke-width="1" opacity="1" d="M 23.5 52 Q 31.5 50.5 33 55.5 L 32.5 61 L 31 54 L 28.5 53 L 24.5 53 L 19 57.5 L 17 62.5 L 17 67.5 L 19 73 L 21.5 74 L 25.5 74 L 29.5 71 L 31 77 L 34.5 77 Q 35.5 74.5 38 75 L 39 77.5 L 39 80.5 L 38 80.5 Q 38.5 77.5 36.5 77 Q 35.5 79 31.5 78 Q 28.67 76.83 28.5 73 Q 26.5 76 20.5 75 L 17 71.5 L 16 68.5 L 16 62.5 L 20 54 Q 22.5 54.5 23.5 52 Z " /><path fill="rgb(222,222,222)" stroke="rgb(222,222,222)" stroke-width="1" opacity="1" d="M 73.5 13 L 73.5 14 L 73.5 13 Z " /><path fill="rgb(222,222,222)" stroke="rgb(222,222,222)" stroke-width="1" opacity="1" d="M 75.5 14 L 75.5 15 L 75.5 14 Z " /><path fill="rgb(222,222,222)" stroke="rgb(222,222,222)" stroke-width="1" opacity="1" d="M 77.5 15 L 77.5 16 L 77.5 15 Z " /><path fill="rgb(222,222,222)" stroke="rgb(222,222,222)" stroke-width="1" opacity="1" d="M 81.5 17 L 81.5 18 L 81.5 17 Z " /><path fill="rgb(222,222,222)" stroke="rgb(222,222,222)" stroke-width="1" opacity="1" d="M 68.5 18 L 68.5 19 L 68.5 18 Z " /><path fill="rgb(222,222,222)" stroke="rgb(222,222,222)" stroke-width="1" opacity="1" d="M 65.5 20 Q 67 21 64.5 22 Q 63 21 65.5 20 Z " /><path fill="rgb(222,222,222)" stroke="rgb(222,222,222)" stroke-width="1" opacity="1" d="M 80.5 23 L 81 24.5 L 80 24.5 L 80.5 23 Z " /><path fill="rgb(222,222,222)" stroke="rgb(222,222,222)" stroke-width="1" opacity="1" d="M 60.5 29 L 60.5 30 L 60.5 29 Z " /><path fill="rgb(222,222,222)" stroke="rgb(222,222,222)" stroke-width="1" opacity="1" d="M 82.5 30 L 85 32.5 L 84.5 33 L 82 30.5 L 82.5 30 Z " /><path fill="rgb(222,222,222)" stroke="rgb(222,222,222)" stroke-width="1" opacity="1" d="M 59.5 31 L 59.5 32 L 59.5 31 Z " /><path fill="rgb(222,222,222)" stroke="rgb(222,222,222)" stroke-width="1" opacity="1" d="M 79.5 32 L 81 32.5 L 79.5 33 L 79.5 32 Z " /><path fill="rgb(222,222,222)" stroke="rgb(222,222,222)" stroke-width="1" opacity="1" d="M 78.5 34 L 78.5 35 L 78.5 34 Z " /><path fill="rgb(222,222,222)" stroke="rgb(222,222,222)" stroke-width="1" opacity="1" d="M 57.5 36 L 57.5 37 L 57.5 36 Z " /><path fill="rgb(222,222,222)" stroke="rgb(222,222,222)" stroke-width="1" opacity="1" d="M 56.5 38 L 56.5 39 L 56.5 38 Z " /><path fill="rgb(222,222,222)" stroke="rgb(222,222,222)" stroke-width="1" opacity="1" d="M 53.5 45 L 53.5 46 L 53.5 45 Z " /><path fill="rgb(222,222,222)" stroke="rgb(222,222,222)" stroke-width="1" opacity="1" d="M 52.5 47 L 52.5 48 L 52.5 47 Z " /><path fill="rgb(222,222,222)" stroke="rgb(222,222,222)" stroke-width="1" opacity="1" d="M 29.5 51 L 29.5 52 L 29.5 51 Z " /><path fill="rgb(222,222,222)" stroke="rgb(222,222,222)" stroke-width="1" opacity="1" d="M 20.5 53 L 21 53.5 L 18.5 56 L 18 55.5 L 20.5 53 Z " /><path fill="rgb(222,222,222)" stroke="rgb(222,222,222)" stroke-width="1" opacity="1" d="M 26.5 53 L 28 53.5 L 26.5 54 L 26.5 53 Z " /><path fill="rgb(222,222,222)" stroke="rgb(222,222,222)" stroke-width="1" opacity="1" d="M 78.5 53 L 78.5 54 L 78.5 53 Z " /><path fill="rgb(222,222,222)" stroke="rgb(222,222,222)" stroke-width="1" opacity="1" d="M 23.5 54 L 23.5 55 L 23.5 54 Z " /><path fill="rgb(222,222,222)" stroke="rgb(222,222,222)" stroke-width="1" opacity="1" d="M 29.5 54 Q 32 55 30.5 56 Q 28 55 29.5 54 Z " /><path fill="rgb(222,222,222)" stroke="rgb(222,222,222)" stroke-width="1" opacity="1" d="M 49.5 54 L 49.5 55 L 49.5 54 Z " /><path fill="rgb(222,222,222)" stroke="rgb(222,222,222)" stroke-width="1" opacity="1" d="M 75.5 54 Q 78 55 76.5 56 Q 74 55 75.5 54 Z " /><path fill="rgb(222,222,222)" stroke="rgb(222,222,222)" stroke-width="1" opacity="1" d="M 33.5 60 L 33.5 61 L 33.5 60 Z " /><path fill="rgb(222,222,222)" stroke="rgb(222,222,222)" stroke-width="1" opacity="1" d="M 18.5 61 L 18.5 62 L 18.5 61 Z " /><path fill="rgb(222,222,222)" stroke="rgb(222,222,222)" stroke-width="1" opacity="1" d="M 15.5 62 L 16 63.5 L 15 63.5 L 15.5 62 Z " /><path fill="rgb(222,222,222)" stroke="rgb(222,222,222)" stroke-width="1" opacity="1" d="M 46.5 63 L 46.5 64 L 46.5 63 Z " /><path fill="rgb(222,222,222)" stroke="rgb(222,222,222)" stroke-width="1" opacity="1" d="M 63.5 64 L 63.5 65 L 63.5 64 Z " /><path fill="rgb(222,222,222)" stroke="rgb(222,222,222)" stroke-width="1" opacity="1" d="M 62.5 66 L 62.5 67 L 62.5 66 Z " /><path fill="rgb(222,222,222)" stroke="rgb(222,222,222)" stroke-width="1" opacity="1" d="M 15.5 67 L 15.5 68 L 15.5 67 Z " /><path fill="rgb(222,222,222)" stroke="rgb(222,222,222)" stroke-width="1" opacity="1" d="M 45.5 67 L 45.5 68 L 45.5 67 Z " /><path fill="rgb(222,222,222)" stroke="rgb(222,222,222)" stroke-width="1" opacity="1" d="M 60.5 69 L 60.5 70 L 60.5 69 Z " /><path fill="rgb(222,222,222)" stroke="rgb(222,222,222)" stroke-width="1" opacity="1" d="M 28.5 70 Q 30 71 27.5 72 Q 26 71 28.5 70 Z " /><path fill="rgb(222,222,222)" stroke="rgb(222,222,222)" stroke-width="1" opacity="1" d="M 16.5 71 L 16.5 72 L 16.5 71 Z " /><path fill="rgb(222,222,222)" stroke="rgb(222,222,222)" stroke-width="1" opacity="1" d="M 20.5 72 L 20.5 73 L 20.5 72 Z " /><path fill="rgb(222,222,222)" stroke="rgb(222,222,222)" stroke-width="1" opacity="1" d="M 44.5 72 L 44.5 73 L 44.5 72 Z " /><path fill="rgb(222,222,222)" stroke="rgb(222,222,222)" stroke-width="1" opacity="1" d="M 57.5 73 L 57.5 74 L 57.5 73 Z " /><path fill="rgb(222,222,222)" stroke="rgb(222,222,222)" stroke-width="1" opacity="1" d="M 38.5 74 L 38.5 75 L 38.5 74 Z " /><path fill="rgb(222,222,222)" stroke="rgb(222,222,222)" stroke-width="1" opacity="1" d="M 20.5 75 L 20.5 76 L 20.5 75 Z " /><path fill="rgb(222,222,222)" stroke="rgb(222,222,222)" stroke-width="1" opacity="1" d="M 25.5 75 L 25.5 76 L 25.5 75 Z " /><path fill="rgb(222,222,222)" stroke="rgb(222,222,222)" stroke-width="1" opacity="1" d="M 28.5 75 L 28.5 76 L 28.5 75 Z " /><path fill="rgb(222,222,222)" stroke="rgb(222,222,222)" stroke-width="1" opacity="1" d="M 31.5 75 L 31.5 76 L 31.5 75 Z " /><path fill="rgb(222,222,222)" stroke="rgb(222,222,222)" stroke-width="1" opacity="1" d="M 29.5 77 L 29.5 78 L 29.5 77 Z " /><path fill="rgb(222,222,222)" stroke="rgb(222,222,222)" stroke-width="1" opacity="1" d="M 39.5 77 L 39.5 78 L 39.5 77 Z " /><path fill="rgb(222,222,222)" stroke="rgb(222,222,222)" stroke-width="1" opacity="1" d="M 35.5 78 L 35.5 79 L 35.5 78 Z " /><path fill="rgb(222,222,222)" stroke="rgb(222,222,222)" stroke-width="1" opacity="1" d="M 52.5 79 L 53 79.5 L 50.5 82 L 50 81.5 L 52.5 79 Z " /><path fill="rgb(222,222,222)" stroke="rgb(222,222,222)" stroke-width="1" opacity="1" d="M 37.5 80 L 37.5 81 L 37.5 80 Z " /><path fill="rgb(222,222,222)" stroke="rgb(222,222,222)" stroke-width="1" opacity="1" d="M 43.5 82 L 43.5 83 L 43.5 82 Z " /><path fill="rgb(222,222,222)" stroke="rgb(222,222,222)" stroke-width="1" opacity="1" d="M 48.5 82 L 48.5 83 L 48.5 82 Z " /><path fill="rgb(222,222,222)" stroke="rgb(222,222,222)" stroke-width="1" opacity="1" d="M 47.5 84 L 47.5 85 L 47.5 84 Z " /><path fill="rgb(222,222,222)" stroke="rgb(222,222,222)" stroke-width="1" opacity="1" d="M 43.5 85 L 43.5 86 L 43.5 85 Z " /><path fill="rgb(158,158,158)" stroke="rgb(158,158,158)" stroke-width="1" opacity="1" d="M 72.5 13 L 72.5 14 L 72.5 13 Z " /><path fill="rgb(158,158,158)" stroke="rgb(158,158,158)" stroke-width="1" opacity="1" d="M 70.5 15 L 70.5 16 L 70.5 15 Z " /><path fill="rgb(158,158,158)" stroke="rgb(158,158,158)" stroke-width="1" opacity="1" d="M 79.5 16 L 79.5 17 L 79.5 16 Z " /><path fill="rgb(158,158,158)" stroke="rgb(158,158,158)" stroke-width="1" opacity="1" d="M 69.5 17 L 69.5 18 L 69.5 17 Z " /><path fill="rgb(158,158,158)" stroke="rgb(158,158,158)" stroke-width="1" opacity="1" d="M 81.5 20 L 81.5 21 L 81.5 20 Z " /><path fill="rgb(158,158,158)" stroke="rgb(158,158,158)" stroke-width="1" opacity="1" d="M 63.5 23 L 63.5 24 L 63.5 23 Z " /><path fill="rgb(158,158,158)" stroke="rgb(158,158,158)" stroke-width="1" opacity="1" d="M 62.5 25 L 62.5 26 L 62.5 25 Z " /><path fill="rgb(158,158,158)" stroke="rgb(158,158,158)" stroke-width="1" opacity="1" d="M 80.5 25 L 81 29.5 L 80 29.5 L 80.5 25 Z " /><path fill="rgb(158,158,158)" stroke="rgb(158,158,158)" stroke-width="1" opacity="1" d="M 61.5 27 L 61.5 28 L 61.5 27 Z " /><path fill="rgb(158,158,158)" stroke="rgb(158,158,158)" stroke-width="1" opacity="1" d="M 59.5 32 L 59.5 33 L 59.5 32 Z " /><path fill="rgb(158,158,158)" stroke="rgb(158,158,158)" stroke-width="1" opacity="1" d="M 58.5 34 L 58.5 35 L 58.5 34 Z " /><path fill="rgb(158,158,158)" stroke="rgb(158,158,158)" stroke-width="1" opacity="1" d="M 85.5 34 L 85.5 35 L 85.5 34 Z " /><path fill="rgb(158,158,158)" stroke="rgb(158,158,158)" stroke-width="1" opacity="1" d="M 83.5 35 L 84 38.5 L 83 38.5 L 83.5 35 Z " /><path fill="rgb(158,158,158)" stroke="rgb(158,158,158)" stroke-width="1" opacity="1" d="M 77.5 36 L 77.5 37 L 77.5 36 Z " /><path fill="rgb(158,158,158)" stroke="rgb(158,158,158)" stroke-width="1" opacity="1" d="M 76.5 38 L 76.5 39 L 76.5 38 Z " /><path fill="rgb(158,158,158)" stroke="rgb(158,158,158)" stroke-width="1" opacity="1" d="M 85.5 39 L 85.5 40 L 85.5 39 Z " /><path fill="rgb(158,158,158)" stroke="rgb(158,158,158)" stroke-width="1" opacity="1" d="M 75.5 40 L 75.5 41 L 75.5 40 Z " /><path fill="rgb(158,158,158)" stroke="rgb(158,158,158)" stroke-width="1" opacity="1" d="M 82.5 40 L 82.5 41 L 82.5 40 Z " /><path fill="rgb(158,158,158)" stroke="rgb(158,158,158)" stroke-width="1" opacity="1" d="M 55.5 41 L 55.5 42 L 55.5 41 Z " /><path fill="rgb(158,158,158)" stroke="rgb(158,158,158)" stroke-width="1" opacity="1" d="M 84.5 41 L 84.5 42 L 84.5 41 Z " /><path fill="rgb(158,158,158)" stroke="rgb(158,158,158)" stroke-width="1" opacity="1" d="M 74.5 42 L 74.5 43 L 74.5 42 Z " /><path fill="rgb(158,158,158)" stroke="rgb(158,158,158)" stroke-width="1" opacity="1" d="M 81.5 42 L 81.5 43 L 81.5 42 Z " /><path fill="rgb(158,158,158)" stroke="rgb(158,158,158)" stroke-width="1" opacity="1" d="M 54.5 43 L 54.5 44 L 54.5 43 Z " /><path fill="rgb(158,158,158)" stroke="rgb(158,158,158)" stroke-width="1" opacity="1" d="M 83.5 43 L 83.5 44 L 83.5 43 Z " /><path fill="rgb(158,158,158)" stroke="rgb(158,158,158)" stroke-width="1" opacity="1" d="M 73.5 44 L 73.5 45 L 73.5 44 Z " /><path fill="rgb(158,158,158)" stroke="rgb(158,158,158)" stroke-width="1" opacity="1" d="M 80.5 44 L 80.5 45 L 80.5 44 Z " /><path fill="rgb(158,158,158)" stroke="rgb(158,158,158)" stroke-width="1" opacity="1" d="M 82.5 45 L 82.5 46 L 82.5 45 Z " /><path fill="rgb(158,158,158)" stroke="rgb(158,158,158)" stroke-width="1" opacity="1" d="M 72.5 46 L 72.5 47 L 72.5 46 Z " /><path fill="rgb(158,158,158)" stroke="rgb(158,158,158)" stroke-width="1" opacity="1" d="M 79.5 46 L 79.5 47 L 79.5 46 Z " /><path fill="rgb(158,158,158)" stroke="rgb(158,158,158)" stroke-width="1" opacity="1" d="M 81.5 47 L 81.5 48 L 81.5 47 Z " /><path fill="rgb(158,158,158)" stroke="rgb(158,158,158)" stroke-width="1" opacity="1" d="M 71.5 48 L 71.5 49 L 71.5 48 Z " /><path fill="rgb(158,158,158)" stroke="rgb(158,158,158)" stroke-width="1" opacity="1" d="M 78.5 48 L 78.5 49 L 78.5 48 Z " /><path fill="rgb(158,158,158)" stroke="rgb(158,158,158)" stroke-width="1" opacity="1" d="M 80.5 49 L 80.5 50 L 80.5 49 Z " /><path fill="rgb(158,158,158)" stroke="rgb(158,158,158)" stroke-width="1" opacity="1" d="M 51.5 50 L 51.5 51 L 51.5 50 Z " /><path fill="rgb(158,158,158)" stroke="rgb(158,158,158)" stroke-width="1" opacity="1" d="M 70.5 50 L 70.5 51 L 70.5 50 Z " /><path fill="rgb(158,158,158)" stroke="rgb(158,158,158)" stroke-width="1" opacity="1" d="M 77.5 50 L 77.5 51 L 77.5 50 Z " /><path fill="rgb(158,158,158)" stroke="rgb(158,158,158)" stroke-width="1" opacity="1" d="M 24.5 51 L 24.5 52 L 24.5 51 Z " /><path fill="rgb(158,158,158)" stroke="rgb(158,158,158)" stroke-width="1" opacity="1" d="M 79.5 51 L 79.5 52 L 79.5 51 Z " /><path fill="rgb(158,158,158)" stroke="rgb(158,158,158)" stroke-width="1" opacity="1" d="M 22.5 52 L 22.5 53 L 22.5 52 Z " /><path fill="rgb(158,158,158)" stroke="rgb(158,158,158)" stroke-width="1" opacity="1" d="M 50.5 52 L 50.5 53 L 50.5 52 Z " /><path fill="rgb(158,158,158)" stroke="rgb(158,158,158)" stroke-width="1" opacity="1" d="M 69.5 52 L 69.5 53 L 69.5 52 Z " /><path fill="rgb(158,158,158)" stroke="rgb(158,158,158)" stroke-width="1" opacity="1" d="M 76.5 52 L 76.5 53 L 76.5 52 Z " /><path fill="rgb(158,158,158)" stroke="rgb(158,158,158)" stroke-width="1" opacity="1" d="M 25.5 53 L 25.5 54 L 25.5 53 Z " /><path fill="rgb(158,158,158)" stroke="rgb(158,158,158)" stroke-width="1" opacity="1" d="M 28.5 53 L 28.5 54 L 28.5 53 Z " /><path fill="rgb(158,158,158)" stroke="rgb(158,158,158)" stroke-width="1" opacity="1" d="M 68.5 54 L 68.5 55 L 68.5 54 Z " /><path fill="rgb(158,158,158)" stroke="rgb(158,158,158)" stroke-width="1" opacity="1" d="M 33.5 56 L 34 59.5 L 33 59.5 L 33.5 56 Z " /><path fill="rgb(158,158,158)" stroke="rgb(158,158,158)" stroke-width="1" opacity="1" d="M 67.5 56 L 67.5 57 L 67.5 56 Z " /><path fill="rgb(158,158,158)" stroke="rgb(158,158,158)" stroke-width="1" opacity="1" d="M 17.5 57 L 17.5 58 L 17.5 57 Z " /><path fill="rgb(158,158,158)" stroke="rgb(158,158,158)" stroke-width="1" opacity="1" d="M 31.5 57 L 32 58.5 L 31 58.5 L 31.5 57 Z " /><path fill="rgb(158,158,158)" stroke="rgb(158,158,158)" stroke-width="1" opacity="1" d="M 48.5 57 L 48.5 58 L 48.5 57 Z " /><path fill="rgb(158,158,158)" stroke="rgb(158,158,158)" stroke-width="1" opacity="1" d="M 19.5 58 L 19.5 59 L 19.5 58 Z " /><path fill="rgb(158,158,158)" stroke="rgb(158,158,158)" stroke-width="1" opacity="1" d="M 66.5 58 L 66.5 59 L 66.5 58 Z " /><path fill="rgb(158,158,158)" stroke="rgb(158,158,158)" stroke-width="1" opacity="1" d="M 16.5 59 L 16.5 60 L 16.5 59 Z " /><path fill="rgb(158,158,158)" stroke="rgb(158,158,158)" stroke-width="1" opacity="1" d="M 18.5 60 L 18.5 61 L 18.5 60 Z " /><path fill="rgb(158,158,158)" stroke="rgb(158,158,158)" stroke-width="1" opacity="1" d="M 47.5 60 L 47.5 61 L 47.5 60 Z " /><path fill="rgb(158,158,158)" stroke="rgb(158,158,158)" stroke-width="1" opacity="1" d="M 65.5 60 L 65.5 61 L 65.5 60 Z " /><path fill="rgb(158,158,158)" stroke="rgb(158,158,158)" stroke-width="1" opacity="1" d="M 31.5 61 L 33 61.5 L 31.5 62 L 31.5 61 Z " /><path fill="rgb(158,158,158)" stroke="rgb(158,158,158)" stroke-width="1" opacity="1" d="M 64.5 62 L 64.5 63 L 64.5 62 Z " /><path fill="rgb(158,158,158)" stroke="rgb(158,158,158)" stroke-width="1" opacity="1" d="M 15.5 64 L 16 66.5 L 15 66.5 L 15.5 64 Z " /><path fill="rgb(158,158,158)" stroke="rgb(158,158,158)" stroke-width="1" opacity="1" d="M 46.5 64 L 46.5 65 L 46.5 64 Z " /><path fill="rgb(158,158,158)" stroke="rgb(158,158,158)" stroke-width="1" opacity="1" d="M 61.5 67 L 61.5 68 L 61.5 67 Z " /><path fill="rgb(158,158,158)" stroke="rgb(158,158,158)" stroke-width="1" opacity="1" d="M 45.5 68 L 45.5 69 L 45.5 68 Z " /><path fill="rgb(158,158,158)" stroke="rgb(158,158,158)" stroke-width="1" opacity="1" d="M 18.5 69 L 18.5 70 L 18.5 69 Z " /><path fill="rgb(158,158,158)" stroke="rgb(158,158,158)" stroke-width="1" opacity="1" d="M 16.5 70 L 16.5 71 L 16.5 70 Z " /><path fill="rgb(158,158,158)" stroke="rgb(158,158,158)" stroke-width="1" opacity="1" d="M 29.5 70 Q 31.5 70.5 31 73.5 L 30 73.5 L 29.5 70 Z " /><path fill="rgb(158,158,158)" stroke="rgb(158,158,158)" stroke-width="1" opacity="1" d="M 59.5 70 L 59.5 71 L 59.5 70 Z " /><path fill="rgb(158,158,158)" stroke="rgb(158,158,158)" stroke-width="1" opacity="1" d="M 19.5 71 L 19.5 72 L 19.5 71 Z " /><path fill="rgb(158,158,158)" stroke="rgb(158,158,158)" stroke-width="1" opacity="1" d="M 17.5 72 L 17.5 73 L 17.5 72 Z " /><path fill="rgb(158,158,158)" stroke="rgb(158,158,158)" stroke-width="1" opacity="1" d="M 26.5 72 L 26.5 73 L 26.5 72 Z " /><path fill="rgb(158,158,158)" stroke="rgb(158,158,158)" stroke-width="1" opacity="1" d="M 22.5 73 L 24 73.5 L 22.5 74 L 22.5 73 Z " /><path fill="rgb(158,158,158)" stroke="rgb(158,158,158)" stroke-width="1" opacity="1" d="M 44.5 73 L 45 74.5 L 44 74.5 L 44.5 73 Z " /><path fill="rgb(158,158,158)" stroke="rgb(158,158,158)" stroke-width="1" opacity="1" d="M 27.5 74 L 29 74.5 L 27.5 75 L 27.5 74 Z " /><path fill="rgb(158,158,158)" stroke="rgb(158,158,158)" stroke-width="1" opacity="1" d="M 36.5 74 Q 38 75 35.5 76 Q 34 75 36.5 74 Z " /><path fill="rgb(158,158,158)" stroke="rgb(158,158,158)" stroke-width="1" opacity="1" d="M 56.5 74 Q 58 75 55.5 76 Q 54 75 56.5 74 Z " /><path fill="rgb(158,158,158)" stroke="rgb(158,158,158)" stroke-width="1" opacity="1" d="M 21.5 75 L 21.5 76 L 21.5 75 Z " /><path fill="rgb(158,158,158)" stroke="rgb(158,158,158)" stroke-width="1" opacity="1" d="M 23.5 75 L 25 75.5 L 23.5 76 L 23.5 75 Z " /><path fill="rgb(158,158,158)" stroke="rgb(158,158,158)" stroke-width="1" opacity="1" d="M 32.5 76 L 34 76.5 L 32.5 77 L 32.5 76 Z " /><path fill="rgb(158,158,158)" stroke="rgb(158,158,158)" stroke-width="1" opacity="1" d="M 36.5 77 L 36.5 78 L 36.5 77 Z " /><path fill="rgb(158,158,158)" stroke="rgb(158,158,158)" stroke-width="1" opacity="1" d="M 31.5 78 L 31.5 79 L 31.5 78 Z " /><path fill="rgb(158,158,158)" stroke="rgb(158,158,158)" stroke-width="1" opacity="1" d="M 34.5 78 L 34.5 79 L 34.5 78 Z " /><path fill="rgb(158,158,158)" stroke="rgb(158,158,158)" stroke-width="1" opacity="1" d="M 39.5 78 L 39.5 79 L 39.5 78 Z " /><path fill="rgb(158,158,158)" stroke="rgb(158,158,158)" stroke-width="1" opacity="1" d="M 37.5 79 L 37.5 80 L 37.5 79 Z " /><path fill="rgb(158,158,158)" stroke="rgb(158,158,158)" stroke-width="1" opacity="1" d="M 44.5 80 L 44.5 81 L 44.5 80 Z " /><path fill="rgb(158,158,158)" stroke="rgb(158,158,158)" stroke-width="1" opacity="1" d="M 46.5 85 L 46.5 86 L 46.5 85 Z " /><path fill="rgb(75,75,75)" stroke="rgb(75,75,75)" stroke-width="1" opacity="1" d="M 74.5 14 L 74.5 15 L 74.5 14 Z " /><path fill="rgb(75,75,75)" stroke="rgb(75,75,75)" stroke-width="1" opacity="1" d="M 76.5 15 L 76.5 16 L 76.5 15 Z " /><path fill="rgb(75,75,75)" stroke="rgb(75,75,75)" stroke-width="1" opacity="1" d="M 78.5 16 L 78.5 17 L 78.5 16 Z " /><path fill="rgb(75,75,75)" stroke="rgb(75,75,75)" stroke-width="1" opacity="1" d="M 80.5 17 L 80.5 18 L 80.5 17 Z " /><path fill="rgb(75,75,75)" stroke="rgb(75,75,75)" stroke-width="1" opacity="1" d="M 67.5 19 L 67.5 20 L 67.5 19 Z " /><path fill="rgb(75,75,75)" stroke="rgb(75,75,75)" stroke-width="1" opacity="1" d="M 64.5 22 L 64.5 23 L 64.5 22 Z " /><path fill="rgb(75,75,75)" stroke="rgb(75,75,75)" stroke-width="1" opacity="1" d="M 80.5 22 L 80.5 23 L 80.5 22 Z " /><path fill="rgb(75,75,75)" stroke="rgb(75,75,75)" stroke-width="1" opacity="1" d="M 61.5 28 L 61.5 29 L 61.5 28 Z " /><path fill="rgb(75,75,75)" stroke="rgb(75,75,75)" stroke-width="1" opacity="1" d="M 60.5 30 L 60.5 31 L 60.5 30 Z " /><path fill="rgb(75,75,75)" stroke="rgb(75,75,75)" stroke-width="1" opacity="1" d="M 81.5 30 L 81.5 31 L 81.5 30 Z " /><path fill="rgb(75,75,75)" stroke="rgb(75,75,75)" stroke-width="1" opacity="1" d="M 79.5 31 L 79.5 32 L 79.5 31 Z " /><path fill="rgb(75,75,75)" stroke="rgb(75,75,75)" stroke-width="1" opacity="1" d="M 81.5 32 Q 84 33 82.5 34 Q 80 33 81.5 32 Z " /><path fill="rgb(75,75,75)" stroke="rgb(75,75,75)" stroke-width="1" opacity="1" d="M 78.5 33 L 78.5 34 L 78.5 33 Z " /><path fill="rgb(75,75,75)" stroke="rgb(75,75,75)" stroke-width="1" opacity="1" d="M 77.5 35 L 77.5 36 L 77.5 35 Z " /><path fill="rgb(75,75,75)" stroke="rgb(75,75,75)" stroke-width="1" opacity="1" d="M 85.5 35 L 86 38.5 L 85 38.5 L 85.5 35 Z " /><path fill="rgb(75,75,75)" stroke="rgb(75,75,75)" stroke-width="1" opacity="1" d="M 57.5 37 L 57.5 38 L 57.5 37 Z " /><path fill="rgb(75,75,75)" stroke="rgb(75,75,75)" stroke-width="1" opacity="1" d="M 76.5 37 L 76.5 38 L 76.5 37 Z " /><path fill="rgb(75,75,75)" stroke="rgb(75,75,75)" stroke-width="1" opacity="1" d="M 56.5 39 L 56.5 40 L 56.5 39 Z " /><path fill="rgb(75,75,75)" stroke="rgb(75,75,75)" stroke-width="1" opacity="1" d="M 75.5 39 L 75.5 40 L 75.5 39 Z " /><path fill="rgb(75,75,75)" stroke="rgb(75,75,75)" stroke-width="1" opacity="1" d="M 83.5 39 L 83.5 40 L 83.5 39 Z " /><path fill="rgb(75,75,75)" stroke="rgb(75,75,75)" stroke-width="1" opacity="1" d="M 82.5 41 L 82.5 42 L 82.5 41 Z " /><path fill="rgb(75,75,75)" stroke="rgb(75,75,75)" stroke-width="1" opacity="1" d="M 54.5 44 L 54.5 45 L 54.5 44 Z " /><path fill="rgb(75,75,75)" stroke="rgb(75,75,75)" stroke-width="1" opacity="1" d="M 53.5 46 L 53.5 47 L 53.5 46 Z " /><path fill="rgb(75,75,75)" stroke="rgb(75,75,75)" stroke-width="1" opacity="1" d="M 52.5 48 L 52.5 49 L 52.5 48 Z " /><path fill="rgb(75,75,75)" stroke="rgb(75,75,75)" stroke-width="1" opacity="1" d="M 79.5 50 L 79.5 51 L 79.5 50 Z " /><path fill="rgb(75,75,75)" stroke="rgb(75,75,75)" stroke-width="1" opacity="1" d="M 25.5 51 L 29 51.5 L 25.5 52 L 25.5 51 Z " /><path fill="rgb(75,75,75)" stroke="rgb(75,75,75)" stroke-width="1" opacity="1" d="M 30.5 52 L 33 54.5 L 32.5 55 L 30 52.5 L 30.5 52 Z " /><path fill="rgb(75,75,75)" stroke="rgb(75,75,75)" stroke-width="1" opacity="1" d="M 78.5 52 L 78.5 53 L 78.5 52 Z " /><path fill="rgb(75,75,75)" stroke="rgb(75,75,75)" stroke-width="1" opacity="1" d="M 24.5 53 L 24.5 54 L 24.5 53 Z " /><path fill="rgb(75,75,75)" stroke="rgb(75,75,75)" stroke-width="1" opacity="1" d="M 50.5 53 L 50.5 54 L 50.5 53 Z " /><path fill="rgb(75,75,75)" stroke="rgb(75,75,75)" stroke-width="1" opacity="1" d="M 22.5 54 L 23 54.5 L 20.5 57 L 20 56.5 L 22.5 54 Z " /><path fill="rgb(75,75,75)" stroke="rgb(75,75,75)" stroke-width="1" opacity="1" d="M 77.5 54 L 77.5 55 L 77.5 54 Z " /><path fill="rgb(75,75,75)" stroke="rgb(75,75,75)" stroke-width="1" opacity="1" d="M 49.5 55 L 49.5 56 L 49.5 55 Z " /><path fill="rgb(75,75,75)" stroke="rgb(75,75,75)" stroke-width="1" opacity="1" d="M 18.5 56 L 18.5 57 L 18.5 56 Z " /><path fill="rgb(75,75,75)" stroke="rgb(75,75,75)" stroke-width="1" opacity="1" d="M 31.5 56 L 31.5 57 L 31.5 56 Z " /><path fill="rgb(75,75,75)" stroke="rgb(75,75,75)" stroke-width="1" opacity="1" d="M 48.5 58 L 48.5 59 L 48.5 58 Z " /><path fill="rgb(75,75,75)" stroke="rgb(75,75,75)" stroke-width="1" opacity="1" d="M 31.5 59 L 32 60.5 L 31 60.5 L 31.5 59 Z " /><path fill="rgb(75,75,75)" stroke="rgb(75,75,75)" stroke-width="1" opacity="1" d="M 16.5 60 L 16.5 61 L 16.5 60 Z " /><path fill="rgb(75,75,75)" stroke="rgb(75,75,75)" stroke-width="1" opacity="1" d="M 47.5 61 L 47.5 62 L 47.5 61 Z " /><path fill="rgb(75,75,75)" stroke="rgb(75,75,75)" stroke-width="1" opacity="1" d="M 17.5 63 L 18 67.5 L 17 67.5 L 17.5 63 Z " /><path fill="rgb(75,75,75)" stroke="rgb(75,75,75)" stroke-width="1" opacity="1" d="M 46.5 65 L 46.5 66 L 46.5 65 Z " /><path fill="rgb(75,75,75)" stroke="rgb(75,75,75)" stroke-width="1" opacity="1" d="M 62.5 65 L 62.5 66 L 62.5 65 Z " /><path fill="rgb(75,75,75)" stroke="rgb(75,75,75)" stroke-width="1" opacity="1" d="M 60.5 68 L 60.5 69 L 60.5 68 Z " /><path fill="rgb(75,75,75)" stroke="rgb(75,75,75)" stroke-width="1" opacity="1" d="M 45.5 69 L 46 70.5 L 45 70.5 L 45.5 69 Z " /><path fill="rgb(75,75,75)" stroke="rgb(75,75,75)" stroke-width="1" opacity="1" d="M 18.5 70 L 18.5 71 L 18.5 70 Z " /><path fill="rgb(75,75,75)" stroke="rgb(75,75,75)" stroke-width="1" opacity="1" d="M 58.5 71 L 58.5 72 L 58.5 71 Z " /><path fill="rgb(75,75,75)" stroke="rgb(75,75,75)" stroke-width="1" opacity="1" d="M 18.5 73 Q 21 74 19.5 75 Q 17 74 18.5 73 Z " /><path fill="rgb(75,75,75)" stroke="rgb(75,75,75)" stroke-width="1" opacity="1" d="M 21.5 73 L 21.5 74 L 21.5 73 Z " /><path fill="rgb(75,75,75)" stroke="rgb(75,75,75)" stroke-width="1" opacity="1" d="M 24.5 73 L 24.5 74 L 24.5 73 Z " /><path fill="rgb(75,75,75)" stroke="rgb(75,75,75)" stroke-width="1" opacity="1" d="M 26.5 74 L 26.5 75 L 26.5 74 Z " /><path fill="rgb(75,75,75)" stroke="rgb(75,75,75)" stroke-width="1" opacity="1" d="M 30.5 74 L 30.5 75 L 30.5 74 Z " /><path fill="rgb(75,75,75)" stroke="rgb(75,75,75)" stroke-width="1" opacity="1" d="M 22.5 75 L 22.5 76 L 22.5 75 Z " /><path fill="rgb(75,75,75)" stroke="rgb(75,75,75)" stroke-width="1" opacity="1" d="M 38.5 75 L 38.5 76 L 38.5 75 Z " /><path fill="rgb(75,75,75)" stroke="rgb(75,75,75)" stroke-width="1" opacity="1" d="M 44.5 75 L 45 76.5 L 44 76.5 L 44.5 75 Z " /><path fill="rgb(75,75,75)" stroke="rgb(75,75,75)" stroke-width="1" opacity="1" d="M 29.5 76 L 29.5 77 L 29.5 76 Z " /><path fill="rgb(75,75,75)" stroke="rgb(75,75,75)" stroke-width="1" opacity="1" d="M 31.5 76 L 31.5 77 L 31.5 76 Z " /><path fill="rgb(75,75,75)" stroke="rgb(75,75,75)" stroke-width="1" opacity="1" d="M 34.5 76 L 34.5 77 L 34.5 76 Z " /><path fill="rgb(75,75,75)" stroke="rgb(75,75,75)" stroke-width="1" opacity="1" d="M 54.5 76 Q 56 77 53.5 78 Q 52 77 54.5 76 Z " /><path fill="rgb(75,75,75)" stroke="rgb(75,75,75)" stroke-width="1" opacity="1" d="M 32.5 78 L 34 78.5 L 32.5 79 L 32.5 78 Z " /><path fill="rgb(75,75,75)" stroke="rgb(75,75,75)" stroke-width="1" opacity="1" d="M 37.5 78 L 37.5 79 L 37.5 78 Z " /><path fill="rgb(75,75,75)" stroke="rgb(75,75,75)" stroke-width="1" opacity="1" d="M 39.5 79 L 39.5 80 L 39.5 79 Z " /><path fill="rgb(75,75,75)" stroke="rgb(75,75,75)" stroke-width="1" opacity="1" d="M 38.5 81 L 40 81.5 L 38.5 82 L 38.5 81 Z " /><path fill="rgb(75,75,75)" stroke="rgb(75,75,75)" stroke-width="1" opacity="1" d="M 44.5 81 L 44.5 82 L 44.5 81 Z " /><path fill="rgb(75,75,75)" stroke="rgb(75,75,75)" stroke-width="1" opacity="1" d="M 43.5 83 L 44 84.5 L 43 84.5 L 43.5 83 Z " /><path fill="rgb(75,75,75)" stroke="rgb(75,75,75)" stroke-width="1" opacity="1" d="M 47.5 83 L 47.5 84 L 47.5 83 Z " /><path fill="rgb(26,26,26)" stroke="rgb(26,26,26)" stroke-width="1" opacity="1" d="M 71.5 14 L 71.5 15 L 71.5 14 Z " /><path fill="rgb(26,26,26)" stroke="rgb(26,26,26)" stroke-width="1" opacity="1" d="M 70.5 16 L 70.5 17 L 70.5 16 Z " /><path fill="rgb(26,26,26)" stroke="rgb(26,26,26)" stroke-width="1" opacity="1" d="M 69.5 18 L 69.5 19 L 69.5 18 Z " /><path fill="rgb(26,26,26)" stroke="rgb(26,26,26)" stroke-width="1" opacity="1" d="M 81.5 18 L 82 19.5 L 81 19.5 L 81.5 18 Z " /><path fill="rgb(26,26,26)" stroke="rgb(26,26,26)" stroke-width="1" opacity="1" d="M 66.5 20 Q 68 21 65.5 22 Q 64 21 66.5 20 Z " /><path fill="rgb(26,26,26)" stroke="rgb(26,26,26)" stroke-width="1" opacity="1" d="M 63.5 24 L 63.5 25 L 63.5 24 Z " /><path fill="rgb(26,26,26)" stroke="rgb(26,26,26)" stroke-width="1" opacity="1" d="M 62.5 26 L 62.5 27 L 62.5 26 Z " /><path fill="rgb(26,26,26)" stroke="rgb(26,26,26)" stroke-width="1" opacity="1" d="M 80.5 31 L 80.5 32 L 80.5 31 Z " /><path fill="rgb(26,26,26)" stroke="rgb(26,26,26)" stroke-width="1" opacity="1" d="M 82.5 31 L 82.5 32 L 82.5 31 Z " /><path fill="rgb(26,26,26)" stroke="rgb(26,26,26)" stroke-width="1" opacity="1" d="M 59.5 33 L 59.5 34 L 59.5 33 Z " /><path fill="rgb(26,26,26)" stroke="rgb(26,26,26)" stroke-width="1" opacity="1" d="M 84.5 33 Q 86 34 83.5 35 Q 82 34 84.5 33 Z " /><path fill="rgb(26,26,26)" stroke="rgb(26,26,26)" stroke-width="1" opacity="1" d="M 58.5 35 L 58.5 36 L 58.5 35 Z " /><path fill="rgb(26,26,26)" stroke="rgb(26,26,26)" stroke-width="1" opacity="1" d="M 84.5 40 L 84.5 41 L 84.5 40 Z " /><path fill="rgb(26,26,26)" stroke="rgb(26,26,26)" stroke-width="1" opacity="1" d="M 74.5 41 L 74.5 42 L 74.5 41 Z " /><path fill="rgb(26,26,26)" stroke="rgb(26,26,26)" stroke-width="1" opacity="1" d="M 55.5 42 L 55.5 43 L 55.5 42 Z " /><path fill="rgb(26,26,26)" stroke="rgb(26,26,26)" stroke-width="1" opacity="1" d="M 83.5 42 L 83.5 43 L 83.5 42 Z " /><path fill="rgb(26,26,26)" stroke="rgb(26,26,26)" stroke-width="1" opacity="1" d="M 73.5 43 L 73.5 44 L 73.5 43 Z " /><path fill="rgb(26,26,26)" stroke="rgb(26,26,26)" stroke-width="1" opacity="1" d="M 81.5 43 Q 84 44 82.5 45 Q 80 44 81.5 43 Z " /><path fill="rgb(26,26,26)" stroke="rgb(26,26,26)" stroke-width="1" opacity="1" d="M 72.5 45 L 72.5 46 L 72.5 45 Z " /><path fill="rgb(26,26,26)" stroke="rgb(26,26,26)" stroke-width="1" opacity="1" d="M 80.5 45 Q 83 46 81.5 47 Q 79 46 80.5 45 Z " /><path fill="rgb(26,26,26)" stroke="rgb(26,26,26)" stroke-width="1" opacity="1" d="M 71.5 47 L 71.5 48 L 71.5 47 Z " /><path fill="rgb(26,26,26)" stroke="rgb(26,26,26)" stroke-width="1" opacity="1" d="M 79.5 47 Q 82 48 80.5 49 Q 78 48 79.5 47 Z " /><path fill="rgb(26,26,26)" stroke="rgb(26,26,26)" stroke-width="1" opacity="1" d="M 52.5 49 L 52.5 50 L 52.5 49 Z " /><path fill="rgb(26,26,26)" stroke="rgb(26,26,26)" stroke-width="1" opacity="1" d="M 70.5 49 L 70.5 50 L 70.5 49 Z " /><path fill="rgb(26,26,26)" stroke="rgb(26,26,26)" stroke-width="1" opacity="1" d="M 78.5 49 L 78.5 50 L 78.5 49 Z " /><path fill="rgb(26,26,26)" stroke="rgb(26,26,26)" stroke-width="1" opacity="1" d="M 51.5 51 L 51.5 52 L 51.5 51 Z " /><path fill="rgb(26,26,26)" stroke="rgb(26,26,26)" stroke-width="1" opacity="1" d="M 69.5 51 L 69.5 52 L 69.5 51 Z " /><path fill="rgb(26,26,26)" stroke="rgb(26,26,26)" stroke-width="1" opacity="1" d="M 77.5 51 L 77.5 52 L 77.5 51 Z " /><path fill="rgb(26,26,26)" stroke="rgb(26,26,26)" stroke-width="1" opacity="1" d="M 21.5 53 L 21.5 54 L 21.5 53 Z " /><path fill="rgb(26,26,26)" stroke="rgb(26,26,26)" stroke-width="1" opacity="1" d="M 68.5 53 L 68.5 54 L 68.5 53 Z " /><path fill="rgb(26,26,26)" stroke="rgb(26,26,26)" stroke-width="1" opacity="1" d="M 76.5 53 L 76.5 54 L 76.5 53 Z " /><path fill="rgb(26,26,26)" stroke="rgb(26,26,26)" stroke-width="1" opacity="1" d="M 30.5 54 L 30.5 55 L 30.5 54 Z " /><path fill="rgb(26,26,26)" stroke="rgb(26,26,26)" stroke-width="1" opacity="1" d="M 19.5 55 L 19.5 56 L 19.5 55 Z " /><path fill="rgb(26,26,26)" stroke="rgb(26,26,26)" stroke-width="1" opacity="1" d="M 67.5 55 L 67.5 56 L 67.5 55 Z " /><path fill="rgb(26,26,26)" stroke="rgb(26,26,26)" stroke-width="1" opacity="1" d="M 49.5 56 L 49.5 57 L 49.5 56 Z " /><path fill="rgb(26,26,26)" stroke="rgb(26,26,26)" stroke-width="1" opacity="1" d="M 19.5 57 L 19.5 58 L 19.5 57 Z " /><path fill="rgb(26,26,26)" stroke="rgb(26,26,26)" stroke-width="1" opacity="1" d="M 66.5 57 L 66.5 58 L 66.5 57 Z " /><path fill="rgb(26,26,26)" stroke="rgb(26,26,26)" stroke-width="1" opacity="1" d="M 17.5 58 Q 20 59 18.5 60 Q 16 59 17.5 58 Z " /><path fill="rgb(26,26,26)" stroke="rgb(26,26,26)" stroke-width="1" opacity="1" d="M 65.5 59 L 65.5 60 L 65.5 59 Z " /><path fill="rgb(26,26,26)" stroke="rgb(26,26,26)" stroke-width="1" opacity="1" d="M 16.5 61 Q 19 62 17.5 63 Q 15 62 16.5 61 Z " /><path fill="rgb(26,26,26)" stroke="rgb(26,26,26)" stroke-width="1" opacity="1" d="M 64.5 61 L 64.5 62 L 64.5 61 Z " /><path fill="rgb(26,26,26)" stroke="rgb(26,26,26)" stroke-width="1" opacity="1" d="M 47.5 62 L 47.5 63 L 47.5 62 Z " /><path fill="rgb(26,26,26)" stroke="rgb(26,26,26)" stroke-width="1" opacity="1" d="M 63.5 63 L 63.5 64 L 63.5 63 Z " /><path fill="rgb(26,26,26)" stroke="rgb(26,26,26)" stroke-width="1" opacity="1" d="M 46.5 66 L 46.5 67 L 46.5 66 Z " /><path fill="rgb(26,26,26)" stroke="rgb(26,26,26)" stroke-width="1" opacity="1" d="M 61.5 66 L 61.5 67 L 61.5 66 Z " /><path fill="rgb(26,26,26)" stroke="rgb(26,26,26)" stroke-width="1" opacity="1" d="M 16.5 69 L 16.5 70 L 16.5 69 Z " /><path fill="rgb(26,26,26)" stroke="rgb(26,26,26)" stroke-width="1" opacity="1" d="M 28.5 71 L 28.5 72 L 28.5 71 Z " /><path fill="rgb(26,26,26)" stroke="rgb(26,26,26)" stroke-width="1" opacity="1" d="M 19.5 72 L 19.5 73 L 19.5 72 Z " /><path fill="rgb(26,26,26)" stroke="rgb(26,26,26)" stroke-width="1" opacity="1" d="M 57.5 72 Q 59 73 56.5 74 Q 55 73 57.5 72 Z " /><path fill="rgb(26,26,26)" stroke="rgb(26,26,26)" stroke-width="1" opacity="1" d="M 25.5 73 L 25.5 74 L 25.5 73 Z " /><path fill="rgb(26,26,26)" stroke="rgb(26,26,26)" stroke-width="1" opacity="1" d="M 28.5 73 L 28.5 74 L 28.5 73 Z " /><path fill="rgb(26,26,26)" stroke="rgb(26,26,26)" stroke-width="1" opacity="1" d="M 37.5 74 L 37.5 75 L 37.5 74 Z " /><path fill="rgb(26,26,26)" stroke="rgb(26,26,26)" stroke-width="1" opacity="1" d="M 38.5 76 L 38.5 77 L 38.5 76 Z " /><path fill="rgb(26,26,26)" stroke="rgb(26,26,26)" stroke-width="1" opacity="1" d="M 30.5 77 L 30.5 78 L 30.5 77 Z " /><path fill="rgb(26,26,26)" stroke="rgb(26,26,26)" stroke-width="1" opacity="1" d="M 44.5 77 L 44.5 78 L 44.5 77 Z " /><path fill="rgb(26,26,26)" stroke="rgb(26,26,26)" stroke-width="1" opacity="1" d="M 52.5 78 L 53 78.5 L 49.5 82 L 49 81.5 L 52.5 78 Z " /><path fill="rgb(26,26,26)" stroke="rgb(26,26,26)" stroke-width="1" opacity="1" d="M 44.5 79 L 44.5 80 L 44.5 79 Z " /><path fill="rgb(26,26,26)" stroke="rgb(26,26,26)" stroke-width="1" opacity="1" d="M 39.5 80 L 39.5 81 L 39.5 80 Z " /><path fill="rgb(26,26,26)" stroke="rgb(26,26,26)" stroke-width="1" opacity="1" d="M 44.5 85 L 44.5 86 L 44.5 85 Z " /></svg>